<?xml version="1.0" encoding="UTF-8" standalone="no"?>
<svg
   enable-background="new 0 0 48 48"
   height="48"
   id="Layer_1"
   version="1.1"
   viewBox="0 0 48 48"
   width="48"
   xml:space="preserve"
   xmlns="http://www.w3.org/2000/svg"
   xmlns:svg="http://www.w3.org/2000/svg"><defs
     id="defs17" /><g
     id="g12"><circle
       cx="28.646"
       cy="32.130001"
       fill="#231f20"
       r="2.3870001"
       id="circle6"
       style="display:inline;fill:none" /><circle
       cx="16.301001"
       cy="32.130001"
       fill="#231f20"
       r="2.3870001"
       id="circle4"
       style="display:inline;fill:none" /><path
       d="m 34.98,13.484 h -2.156 c -1.557,0 -1.736,1.238 -1.738,1.249 l -0.047,0.427 v -0.002 l -0.514,2.26 c -0.113,0.34 -0.455,0.885 -1.514,0.885 H 11.27 l 3.128,10.041 H 31.354 L 32.857,20 33.291,17.961 v 0 l 0.029,-0.135 c 0.086,-0.358 0.463,-1.363 2.02,-1.389 h 0.191 c 0.385,-0.02 1.223,-0.189 1.199,-1.313 v -0.188 c 0,-1.498 -1.75,-1.452 -1.75,-1.452 z"
       fill="#231f20"
       id="path8"
       style="display:inline;fill:none" /><path
       d="M 24,0 C 10.746,0 0,10.745 0,24 0,37.255 10.745,48 24,48 37.255,48 48,37.255 48,24 48,10.745 37.256,0 24,0 Z m 0.029,43.844 C 13.006,43.844 4.07,34.908 4.07,23.885 4.07,12.862 13.006,3.926 24.029,3.926 c 11.023,0 19.959,8.936 19.959,19.959 0,11.023 -8.935,19.959 -19.959,19.959 z"
       fill="#231f20"
       id="path2"
       style="display:inline;fill:none" /></g></svg>
