<?xml version="1.0" encoding="UTF-8" standalone="no"?>
<svg
   width="152.99969"
   height="36"
   viewBox="0 0 152.99969 36"
   fill="none"
   version="1.1"
   id="svg421"
   sodipodi:docname="sandersgutierrez-light.svg"
   xml:space="preserve"
   inkscape:version="1.2.2 (b0a8486541, 2022-12-01)"
   xmlns:inkscape="http://www.inkscape.org/namespaces/inkscape"
   xmlns:sodipodi="http://sodipodi.sourceforge.net/DTD/sodipodi-0.dtd"
   xmlns="http://www.w3.org/2000/svg"
   xmlns:svg="http://www.w3.org/2000/svg"><defs
     id="defs425" /><sodipodi:namedview
     id="namedview423"
     pagecolor="#ffffff"
     bordercolor="#999999"
     borderopacity="1"
     inkscape:showpageshadow="0"
     inkscape:pageopacity="0"
     inkscape:pagecheckerboard="0"
     inkscape:deskcolor="#d1d1d1"
     showgrid="false"
     inkscape:window-width="1920"
     inkscape:window-height="1051"
     inkscape:window-x="0"
     inkscape:window-y="0"
     inkscape:window-maximized="1"
     inkscape:current-layer="svg421" /><g
     opacity="0.6"
     id="g413"
     style="fill:#ffffff"><path
       d="m 46,3.6 c 0.5045,-0.00612 1.0016,0.12229 1.44,0.372 0.432,0.24 0.772,0.568 1.02,0.984 0.256,0.416 0.384,0.88 0.384,1.392 0,0.512 -0.124,0.98 -0.372,1.404 -0.2497,0.41759 -0.6058,0.76132 -1.032,0.996 -0.432,0.24 -0.912,0.36 -1.44,0.36 H 44.392 V 12 H 43 V 3.6 Z M 45.976,7.776 C 46.1685,7.78124 46.36,7.74783 46.5393,7.67775 46.7186,7.60767 46.8821,7.50235 47.02,7.368 47.308,7.096 47.452,6.756 47.452,6.348 47.452,5.94 47.308,5.604 47.02,5.34 46.8821,5.20566 46.7186,5.10033 46.5393,5.03025 46.36,4.96017 46.1685,4.92676 45.976,4.932 h -1.584 v 2.844 z m 6.516,4.368 c -0.544,0 -1.048,-0.14 -1.512,-0.42 -0.4569,-0.289 -0.8328,-0.6896 -1.092,-1.164 -0.2719,-0.4877 -0.4125,-1.03764 -0.408,-1.596 0,-0.584 0.136,-1.116 0.408,-1.596 0.2574,-0.47262 0.6338,-0.86975 1.092,-1.152 0.4527,-0.28476 0.9772,-0.43461 1.512,-0.432 0.544,0 1.044,0.144 1.5,0.432 0.464,0.28 0.832,0.664 1.104,1.152 0.2738,0.48693 0.4145,1.0374 0.408,1.596 0,0.576 -0.136,1.108 -0.408,1.596 -0.2614,0.4768 -0.6417,0.8778 -1.104,1.164 -0.456,0.28 -0.956,0.42 -1.5,0.42 z m 0,-1.224 c 0.312,0 0.596,-0.084 0.852,-0.252 0.264,-0.168 0.472,-0.4 0.624,-0.696 C 54.12,9.676 54.196,9.34 54.196,8.964 54.196,8.588 54.12,8.252 53.968,7.956 53.8267,7.67188 53.6111,7.43136 53.344,7.26 53.0914,7.09302 52.7948,7.00527 52.492,7.008 c -0.312,0 -0.6,0.084 -0.864,0.252 -0.256,0.168 -0.46,0.4 -0.612,0.696 -0.1559,0.3128 -0.2341,0.65856 -0.228,1.008 0,0.376 0.076,0.712 0.228,1.008 0.152,0.296 0.356,0.528 0.612,0.696 0.264,0.168 0.552,0.252 0.864,0.252 z m 9.532,-0.864 1.272,-4.128 h 1.308 L 62.6,12 H 61.508 L 60.272,8.148 59.06,12 H 57.968 L 55.964,5.928 h 1.356 l 1.26,4.104 1.308,-4.104 h 0.828 z m 8.911,-1.224 c 0,0.256 -0.024,0.472 -0.072,0.648 h -4.5 c 0.08,0.456 0.272,0.816 0.576,1.08 0.304,0.264 0.672,0.396 1.104,0.396 0.312,0 0.576,-0.06 0.792,-0.18 0.216,-0.12 0.388,-0.272 0.516,-0.456 h 1.368 c -0.12,0.304 -0.308,0.596 -0.564,0.876 -0.2587,0.288 -0.573,0.5207 -0.924,0.684 -0.36,0.176 -0.752,0.264 -1.176,0.264 -0.552,0 -1.06,-0.14 -1.524,-0.42 -0.456,-0.28 -0.82,-0.66 -1.092,-1.14 -0.2664,-0.498 -0.4027,-1.05525 -0.396,-1.62 0,-0.584 0.136,-1.116 0.408,-1.596 0.2574,-0.47262 0.6338,-0.86975 1.092,-1.152 0.4488,-0.28363 0.9691,-0.43349 1.5,-0.432 0.536,0 1.024,0.136 1.464,0.408 0.44,0.264 0.788,0.628 1.044,1.092 0.256,0.464 0.384,0.98 0.384,1.548 z m -2.892,-1.86 c -0.416,0 -0.78,0.14 -1.092,0.42 -0.312,0.272 -0.508,0.636 -0.588,1.092 h 3.288 C 69.579,8.036 69.395,7.672 69.099,7.392 68.9592,7.25605 68.794,7.14898 68.6128,7.07691 68.4316,7.00484 68.238,6.96919 68.043,6.972 Z M 72.106,12 V 5.928 H 73.09 L 73.33,6.6 h 0.06 c 0.128,-0.184 0.324,-0.364 0.588,-0.54 0.264,-0.184 0.568,-0.276 0.912,-0.276 0.2,0 0.368,0.016 0.504,0.048 v 1.32 C 75.2161,7.1176 75.0352,7.10152 74.854,7.104 74.43,7.104 74.086,7.24 73.822,7.512 73.558,7.784 73.426,8.16 73.426,8.64 V 12 Z m 9.493,-3.168 c 0,0.256 -0.024,0.472 -0.072,0.648 h -4.5 c 0.08,0.456 0.272,0.816 0.576,1.08 0.304,0.264 0.672,0.396 1.104,0.396 0.312,0 0.576,-0.06 0.792,-0.18 0.216,-0.12 0.388,-0.272 0.516,-0.456 h 1.368 c -0.12,0.304 -0.308,0.596 -0.564,0.876 -0.2587,0.288 -0.573,0.5207 -0.924,0.684 -0.36,0.176 -0.752,0.264 -1.176,0.264 -0.552,0 -1.06,-0.14 -1.524,-0.42 -0.456,-0.28 -0.82,-0.66 -1.092,-1.14 -0.2665,-0.498 -0.4027,-1.05525 -0.396,-1.62 0,-0.584 0.136,-1.116 0.408,-1.596 0.2574,-0.47262 0.6338,-0.86975 1.092,-1.152 0.4488,-0.28363 0.9691,-0.43349 1.5,-0.432 0.536,0 1.024,0.136 1.464,0.408 0.44,0.264 0.788,0.628 1.044,1.092 0.256,0.464 0.384,0.98 0.384,1.548 z m -2.892,-1.86 c -0.416,0 -0.78,0.14 -1.092,0.42 -0.312,0.272 -0.508,0.636 -0.588,1.092 h 3.288 C 80.243,8.036 80.059,7.672 79.763,7.392 79.6232,7.25605 79.458,7.14898 79.2768,7.07691 79.0956,7.00484 78.902,6.96919 78.707,6.972 Z m 6.511,5.172 c -0.496,0 -0.96,-0.136 -1.392,-0.408 -0.4309,-0.2876 -0.7819,-0.6799 -1.02,-1.14 -0.2599,-0.5043 -0.3918,-1.06474 -0.384,-1.632 0,-0.6 0.128,-1.14 0.384,-1.62 0.2337,-0.46318 0.5855,-0.85644 1.02,-1.14 0.432,-0.28 0.896,-0.42 1.392,-0.42 0.28,0 0.54,0.048 0.78,0.144 0.248,0.088 0.452,0.196 0.612,0.324 0.16,0.12 0.268,0.224 0.324,0.312 h 0.06 V 3.6 h 1.32 V 12 H 87.33 l -0.24,-0.684 h -0.06 c -0.128,0.176 -0.356,0.36 -0.684,0.552 -0.3456,0.1884 -0.7344,0.2835 -1.128,0.276 z m 0.144,-1.224 c 0.296,0 0.568,-0.08 0.816,-0.24 0.248,-0.168 0.444,-0.4 0.588,-0.696 0.152,-0.304 0.228,-0.644 0.228,-1.02 0,-0.376 -0.076,-0.712 -0.228,-1.008 C 86.6399,7.673 86.436,7.43164 86.178,7.26 85.9382,7.09455 85.6534,7.0066 85.362,7.008 c -0.296,0 -0.568,0.084 -0.816,0.252 -0.248,0.16 -0.448,0.392 -0.6,0.696 -0.1482,0.31505 -0.2221,0.6599 -0.216,1.008 0,0.376 0.072,0.716 0.216,1.02 0.152,0.296 0.352,0.528 0.6,0.696 0.248,0.16 0.52,0.24 0.816,0.24 z m 10.665,1.224 c -0.3975,0.0085 -0.7904,-0.0866 -1.14,-0.276 -0.32,-0.192 -0.544,-0.376 -0.672,-0.552 h -0.06 L 93.915,12 H 92.931 V 3.6 h 1.32 v 2.964 h 0.06 c 0.056,-0.088 0.164,-0.192 0.324,-0.312 0.16,-0.128 0.36,-0.236 0.6,-0.324 0.248,-0.096 0.512,-0.144 0.792,-0.144 0.496,0 0.956,0.14 1.38,0.42 0.432,0.272 0.776,0.652 1.032,1.14 0.256,0.48 0.384,1.02 0.384,1.62 0,0.6 -0.128,1.144 -0.384,1.632 -0.256,0.48 -0.6,0.86 -1.032,1.14 -0.4102,0.2679 -0.89,0.4098 -1.38,0.408 z M 95.883,10.92 c 0.296,0 0.568,-0.08 0.816,-0.24 0.248,-0.168 0.444,-0.4 0.588,-0.696 0.152,-0.304 0.228,-0.644 0.228,-1.02 0,-0.376 -0.076,-0.712 -0.228,-1.008 C 97.1609,7.673 96.9569,7.43164 96.699,7.26 96.4592,7.09455 96.1744,7.0066 95.883,7.008 c -0.296,0 -0.568,0.084 -0.816,0.252 -0.248,0.16 -0.448,0.392 -0.6,0.696 -0.1482,0.31505 -0.2221,0.6599 -0.216,1.008 0,0.376 0.072,0.716 0.216,1.02 0.152,0.296 0.352,0.528 0.6,0.696 0.248,0.16 0.52,0.24 0.816,0.24 z m 7.872,-4.992 h 1.356 l -2.52,6.408 c -0.28,0.696 -0.572,1.184 -0.876,1.464 -0.138,0.1351 -0.301,0.2418 -0.48,0.3139 -0.179,0.072 -0.371,0.1081 -0.564,0.1061 -0.24,0 -0.456,-0.04 -0.648,-0.12 v -1.2 c 0.128,0.0593 0.267,0.0881 0.408,0.084 0.232,0 0.424,-0.06 0.576,-0.18 0.16,-0.112 0.292,-0.304 0.396,-0.576 l 0.144,-0.384 -2.388,-5.916 h 1.416 l 1.62,4.308 z"
       fill="white"
       id="path411"
       style="fill:#ffffff" /></g><g
     id="layer1"
     transform="matrix(0.2491388,0,0,0.2491388,-7.6709376,-14.028112)"
     style="fill:#ffffff">
        <path
   style="display:inline;fill:#ffffff;stroke-width:0.280241"
   d="m 80.479433,159.31903 c -0.462398,-0.15586 -1.059703,-0.39466 -1.327345,-0.53067 -0.267641,-0.136 -0.80216,-0.24727 -1.187824,-0.24727 -1.18513,0 -3.04202,-1.76516 -2.784338,-2.64678 0.298015,-1.0196 2.945444,-6.66231 4.386236,-9.34878 1.739732,-3.24386 2.738391,-6.02564 2.49283,-6.94382 -0.168629,-0.63054 -11.373924,-11.32672 -11.865837,-11.32672 -0.116266,0 -0.468735,-0.50444 -0.783268,-1.12097 -0.314532,-0.61653 -0.681051,-1.12097 -0.814488,-1.12097 -0.13344,0 -0.457337,-0.45249 -0.719772,-1.00553 -0.300968,-0.63424 -0.816404,-1.14728 -1.395898,-1.38941 -0.745357,-0.31143 -0.903707,-0.52084 -0.839069,-1.10966 0.04382,-0.39918 0.239399,-0.91825 0.434624,-1.15348 0.195221,-0.23523 0.903269,-1.57298 1.573433,-2.97278 1.255438,-2.62228 5.067814,-9.34332 6.004043,-10.58485 1.719516,-2.28025 2.546469,-3.73108 3.16737,-5.55694 0.797744,-2.345892 1.716883,-3.971277 2.245717,-3.971277 0.199252,0 0.914089,0.208864 1.588533,0.464142 0.762872,0.288749 2.164592,0.478403 3.709346,0.501882 2.949695,0.04483 3.261871,0.293617 3.261871,2.599563 0,1.69144 -0.49857,3.08873 -1.562998,4.38043 -0.690053,0.83739 -1.970617,2.90384 -3.324941,5.36547 -0.339202,0.61653 -1.503842,2.50816 -2.588091,4.20362 -2.220416,3.47211 -2.967013,4.83353 -2.839874,5.1785 0.134517,0.36499 6.769995,6.2736 9.825481,8.74917 1.502795,1.21757 2.732355,2.33794 2.732355,2.48969 0,0.15176 0.427961,0.52842 0.951026,0.83704 1.095084,0.64611 1.520969,1.5091 1.719101,3.48348 0.07733,0.77066 0.213499,1.8562 0.302581,2.41229 0.117077,0.73084 -0.0084,1.34507 -0.452732,2.21601 -0.33809,0.66272 -0.798016,1.82219 -1.022059,2.57663 -0.224045,0.75444 -0.58349,1.43929 -0.798773,1.52191 -0.215281,0.0826 -0.604621,0.73809 -0.865198,1.45663 -0.26058,0.71854 -0.834251,2.09495 -1.274831,3.0587 -0.440576,0.96374 -0.801047,1.83657 -0.801047,1.93963 0,0.10305 -0.16455,0.38645 -0.365666,0.62979 -0.383623,0.46415 -2.436751,5.14289 -2.436751,5.55294 0,0.24429 -2.933998,1.77895 -3.299047,1.7256 -0.112187,-0.0164 -0.5823,-0.15734 -1.0447,-0.31321 z m 36.571537,-0.67178 c -0.2312,-0.0715 -0.79869,-0.65319 -1.26109,-1.29259 -0.46239,-0.6394 -1.47313,-1.86359 -2.24608,-2.72042 -0.77294,-0.85683 -1.71429,-1.99925 -2.09187,-2.53871 -1.07661,-1.53816 -4.75968,-6.18402 -5.92167,-7.46964 -0.57873,-0.64031 -1.77036,-2.27972 -2.64805,-3.64313 -1.77325,-2.75459 -3.689088,-5.25465 -6.008525,-7.84078 -3.050433,-3.40117 -3.082964,-3.44751 -3.076618,-4.38142 0.0073,-1.08689 0.851096,-3.03379 1.807091,-4.16994 0.381802,-0.45374 0.824517,-1.30899 0.983812,-1.90056 0.159293,-0.59157 0.4862,-1.23873 0.726462,-1.43813 0.240263,-0.1994 1.071658,-1.44365 1.847547,-2.765 0.775888,-1.32135 2.463301,-3.80959 3.749791,-5.52944 1.2865,-1.71984 3.30108,-4.60863 4.47683,-6.41954 1.17575,-1.81092 2.87697,-4.2637 3.78052,-5.45064 2.74557,-3.606743 3.97948,-4.294238 5.52514,-3.078429 0.3919,0.308266 0.92577,0.560484 1.18638,0.560484 0.26061,0 0.75688,0.301274 1.1028,0.6695 0.34594,0.368223 1.00907,0.745521 1.47365,0.838435 0.46456,0.0929 1.21729,0.43426 1.67272,0.75856 l 0.82803,0.58961 -0.74752,1.3043 c -0.41115,0.71737 -1.16472,1.74568 -1.67462,2.28515 -0.5099,0.53947 -1.5733,1.97387 -2.36312,3.18756 -0.78982,1.2137 -2.0386,2.85312 -2.77508,3.64315 -0.73646,0.79003 -1.41205,1.62559 -1.50129,1.85679 -0.0893,0.2312 -1.05409,1.6184 -2.1441,3.08266 -1.09002,1.46426 -2.23939,3.20552 -2.55415,3.86948 -0.31477,0.66395 -1.33075,2.3221 -2.25773,3.68478 -2.56039,3.76381 -2.5734,3.66508 1.04769,7.95488 1.67082,1.97938 3.7945,4.58025 4.71931,5.77971 0.92479,1.19947 2.81642,3.469 4.20362,5.0434 1.3872,1.57441 2.66193,3.1208 2.83273,3.43641 0.29239,0.54031 0.36128,0.50013 1.17819,-0.68723 0.47721,-0.6936 1.48726,-2.38174 2.24457,-3.75141 0.75731,-1.36969 2.14788,-3.87752 3.09017,-5.57299 0.94229,-1.69546 1.71565,-3.24029 1.71857,-3.43296 0.007,-0.44601 -2.49134,-0.47006 -4.4819,-0.0432 -1.6993,0.36443 -3.01246,-0.0332 -3.21407,-0.97316 -0.0702,-0.32729 -0.31136,-1.41478 -0.53595,-2.41664 -0.63456,-2.83087 -0.75556,-5.02372 -0.32329,-5.85961 0.55825,-1.07956 1.9052,-1.38719 9.96173,-2.27515 5.98842,-0.66 8.47356,-0.17572 8.7496,1.70506 0.0686,0.46725 0.0197,0.91449 -0.10883,0.99387 -0.57861,0.3576 -0.20702,1.95878 0.67861,2.92409 0.5002,0.5452 1.14203,1.34709 1.4263,1.78199 0.49363,0.75518 0.49531,0.84916 0.0373,2.09138 -0.49997,1.3562 -0.57376,1.4814 -3.59851,6.10613 -1.02296,1.56407 -1.86071,2.95127 -1.86166,3.08266 -0.003,0.33618 -3.13412,5.56032 -4.34309,7.24493 -0.55308,0.77066 -1.63258,2.27274 -2.39892,3.33794 -2.5043,3.48102 -2.56852,3.62087 -2.087,4.54416 1.05202,2.0172 0.27075,2.58271 -4.06038,2.9391 -1.46426,0.12049 -3.04062,0.2788 -3.50302,0.35182 -0.4624,0.073 -1.02989,0.0742 -1.26109,0.003 z"
   id="path187" />
        <path
   style="display:inline;fill:#ffffff;stroke-width:0.282222"
   d="m 30.789816,167.50196 v -33.30222 h 5.08 5.079999 v 28.22222 28.22223 h 28.222221 28.222221 v 5.08 5.07999 H 64.092036 30.789816 Z"
   id="path183" />
        <path
   style="display:inline;fill:#ffffff;stroke-width:0.282222"
   d="m 108.68315,195.72419 v -5.08 h 28.22222 28.22222 v -28.22223 -28.22222 h 5.08 5.08 v 33.30222 33.30222 h -33.30222 -33.30222 z"
   id="path189" />
        <path
   style="display:inline;fill:#ffffff;stroke-width:0.282222"
   d="M 165.12759,94.688631 V 66.46641 h -28.22222 -28.22222 v -5.079999 -5.08 h 33.30222 33.30222 v 33.30222 33.302229 h -5.08 -5.08 z"
   id="path181" />
        <path
   style="display:inline;fill:#ffffff;stroke-width:0.282222"
   d="m 30.789816,89.608631 v -33.30222 h 33.302219 33.302221 v 5.08 5.079999 H 69.172036 40.949814 v 28.222221 28.222229 h -5.079999 -5.08 z"
   id="path185" />
    </g><text
     xml:space="preserve"
     style="font-style:normal;font-weight:normal;font-size:13.3333px;line-height:1.25;font-family:sans-serif;fill:#ffffff;fill-opacity:1;stroke:none"
     x="43"
     y="31.026672"
     id="text447"><tspan
       sodipodi:role="line"
       id="tspan445"
       x="43"
       y="31.026672"
       style="font-style:normal;font-variant:normal;font-weight:800;font-stretch:normal;font-size:13.3333px;font-family:Raleway;-inkscape-font-specification:'Raleway Ultra-Bold';fill:#ffffff">sandersgutierrez</tspan></text></svg>
